<svg xmlns="http://www.w3.org/2000/svg" width="1053.078125px" height="180.2px" viewBox="-276.5390625 -15.099999999999994 1053.078125 180.2" style="background: none;" preserveAspectRatio="xMidYMid"><defs><filter id="editing-vr"><feFlood flood-color="#e6a430" flood-opacity="0.7" result="c1"/><feFlood flood-color="#00aeec" flood-opacity="0.7" result="c3"/><feComposite operator="in" in="c1" in2="SourceAlpha" result="text-c1"/><feComposite operator="in" in="c3" in2="SourceAlpha" result="text-c3"/><feOffset in="text-c1" dx="5" dy="-1" result="text1"/><feOffset in="text-c3" dx="-5" dy="1" result="text3"/><feBlend in="SourceGraphic" in2="text1" mode="multiply" result="text4"/><feBlend in="text4" in2="text3" mode="multiply"/></filter></defs><g filter="url(#editing-vr)"><g transform="translate(-129.45502257347107, 121.96500587463379)"><path d="M12.12 0L1.01 0L13.13-66.66L34.84-66.66L50.60-20.81L58.98-66.66L70.20-66.56L57.87 0L34.74 0L20.20-44.14L12.12 0ZM96.96-5.56L96.96-5.56L96.96-5.56Q93.83 2.02 83.83 2.02L83.83 2.02L83.83 2.02Q78.68 2.02 75.45-1.52L75.45-1.52L75.45-1.52Q72.72-4.65 72.72-7.78L72.72-7.78L72.72-7.78Q72.72-15.96 76.46-31.92L76.46-31.92L80.19-51.51L100.70-53.53L94.54-21.61L94.54-21.61Q92.82-14.14 92.82-11.51L92.82-11.51L92.82-11.51Q92.82-5.76 96.96-5.56ZM82.01-65.55L82.01-65.55L82.01-65.55Q82.01-69.49 85.29-71.61L85.29-71.61L85.29-71.61Q88.58-73.73 93.32-73.73L93.32-73.73L93.32-73.73Q98.07-73.73 100.95-71.61L100.95-71.61L100.95-71.61Q103.83-69.49 103.83-65.55L103.83-65.55L103.83-65.55Q103.83-61.61 100.65-59.59L100.65-59.59L100.65-59.59Q97.47-57.57 92.72-57.57L92.72-57.57L92.72-57.57Q87.97-57.57 84.99-59.59L84.99-59.59L84.99-59.59Q82.01-61.61 82.01-65.55ZM155.14-42.02L155.14-42.02L155.14-42.02Q155.14-37.77 151.60-35.15L151.60-35.15L151.60-35.15Q148.07-32.52 142.31-32.52L142.31-32.52L142.31-32.52Q139.88-32.52 138.47-33.23L138.47-33.23L138.47-33.23Q139.58-35.86 139.94-39.14L139.94-39.14L139.94-39.14Q140.29-42.42 140.29-43.33L140.29-43.33L140.29-43.33Q140.29-47.57 137.36-47.57L137.36-47.57L137.36-47.57Q135.34-47.57 133.07-45.05L133.07-45.05L133.07-45.05Q130.80-42.52 128.88-38.58L128.88-38.58L128.88-38.58Q124.63-29.49 124.63-20.30L124.63-20.30L124.63-20.30Q124.63-15.25 126.55-12.98L126.55-12.98L126.55-12.98Q128.47-10.71 132.71-10.71L132.71-10.71L132.71-10.71Q138.57-10.71 143.22-15.55L143.22-15.55L143.22-15.55Q144.53-17.07 145.24-18.79L145.24-18.79L145.24-18.79Q149.08-16.77 149.08-11.21L149.08-11.21L149.08-11.21Q149.08-5.56 142.81-1.82L142.81-1.82L142.81-1.82Q136.35 2.02 126.05 2.02L126.05 2.02L126.05 2.02Q105.55 2.02 105.55-19.70L105.55-19.70L105.55-19.70Q105.55-35.55 114.53-44.64L114.53-44.64L114.53-44.64Q123.22-53.53 139.18-53.53L139.18-53.53L139.18-53.53Q155.14-53.53 155.14-42.02ZM198.77-17.07L198.77-17.07L198.77-17.07Q201.29-15.35 201.29-11.56L201.29-11.56L201.29-11.56Q201.29-7.78 199.37-5.35L199.37-5.35L199.37-5.35Q197.46-2.93 194.32-1.31L194.32-1.31L194.32-1.31Q187.86 2.02 180.89 2.02L180.89 2.02L180.89 2.02Q173.92 2.02 169.83 0.51L169.83 0.51L169.83 0.51Q165.74-1.01 163.01-3.84L163.01-3.84L163.01-3.84Q157.66-9.19 157.66-18.99L157.66-18.99L157.66-18.99Q157.66-34.24 165.94-43.53L165.94-43.53L165.94-43.53Q174.83-53.53 190.28-53.53L190.28-53.53L190.28-53.53Q199.88-53.53 204.63-49.49L204.63-49.49L204.63-49.49Q208.16-46.46 208.16-41.51L208.16-41.51L208.16-41.51Q208.16-23.74 177.46-23.74L177.46-23.74L177.46-23.74Q177.05-21.11 177.05-18.89L177.05-18.89L177.05-18.89Q177.05-14.24 179.12-12.47L179.12-12.47L179.12-12.47Q181.19-10.71 185.03-10.71L185.03-10.71L185.03-10.71Q188.87-10.71 192.96-12.47L192.96-12.47L192.96-12.47Q197.05-14.24 198.77-17.07ZM178.16-28.08L178.16-28.08L178.16-28.08Q185.34-28.08 189.48-32.52L189.48-32.52L189.48-32.52Q193.62-36.76 193.62-43.53L193.62-43.53L193.62-43.53Q193.62-45.85 192.76-47.12L192.76-47.12L192.76-47.12Q191.90-48.38 190.18-48.38L190.18-48.38L190.18-48.38Q188.47-48.38 187.00-47.72L187.00-47.72L187.00-47.72Q185.54-47.07 184.02-44.84L184.02-44.84L184.02-44.84Q180.29-39.79 178.16-28.08ZM274.62-15.55L274.62-15.55L274.62-15.55Q276.54-13.13 276.54-8.43L276.54-8.43L276.54-8.43Q276.54-3.74 272.95-0.86L272.95-0.86L272.95-0.86Q269.37 2.02 263.11 2.02L263.11 2.02L263.11 2.02Q259.47 2.02 253.81 1.21L253.81 1.21L253.81 1.21Q242.70-0.51 239.52-0.51L239.52-0.51L239.52-0.51Q236.34-0.51 235.03-0.35L235.03-0.35L235.03-0.35Q233.71-0.20 231.59 0L231.59 0L243.81-66.66L265.93-66.66L255.83-11.11L255.83-11.11Q257.15-10.91 258.36-10.91L258.36-10.91L260.88-10.91L260.88-10.91Q269.37-10.91 274.62-15.55ZM307.55-5.56L307.55-5.56L307.55-5.56Q304.41 2.02 294.42 2.02L294.42 2.02L294.42 2.02Q289.26 2.02 286.03-1.52L286.03-1.52L286.03-1.52Q283.31-4.65 283.31-7.78L283.31-7.78L283.31-7.78Q283.31-15.96 287.04-31.92L287.04-31.92L290.78-51.51L311.28-53.53L305.12-21.61L305.12-21.61Q303.40-14.14 303.40-11.51L303.40-11.51L303.40-11.51Q303.40-5.76 307.55-5.56ZM292.60-65.55L292.60-65.55L292.60-65.55Q292.60-69.49 295.88-71.61L295.88-71.61L295.88-71.61Q299.16-73.73 303.91-73.73L303.91-73.73L303.91-73.73Q308.66-73.73 311.53-71.61L311.53-71.61L311.53-71.61Q314.41-69.49 314.41-65.55L314.41-65.55L314.41-65.55Q314.41-61.61 311.23-59.59L311.23-59.59L311.23-59.59Q308.05-57.57 303.30-57.57L303.30-57.57L303.30-57.57Q298.56-57.57 295.58-59.59L295.58-59.59L295.58-59.59Q292.60-61.61 292.60-65.55ZM346.33-35.45L346.33-35.45L346.33-35.45Q347.74-39.19 347.74-42.42L347.74-42.42L347.74-42.42Q347.74-48.38 342.90-48.38L342.90-48.38L342.90-48.38Q340.37-48.38 338.30-46.11L338.30-46.11L338.30-46.11Q336.23-43.83 336.23-41.01L336.23-41.01L336.23-41.01Q336.23-38.99 337.85-37.37L337.85-37.37L337.85-37.37Q340.17-35.15 346.13-31.51L346.13-31.51L346.13-31.51Q352.09-27.88 354.36-24.90L354.36-24.90L354.36-24.90Q356.63-21.92 356.63-17.83L356.63-17.83L356.63-17.83Q356.63-13.74 354.66-10.00L354.66-10.00L354.66-10.00Q352.69-6.26 349.16-3.64L349.16-3.64L349.16-3.64Q341.58 2.02 329.46 2.02L329.46 2.02L329.46 2.02Q322.90 2.02 317.85-1.41L317.85-1.41L317.85-1.41Q312.80-4.75 312.80-8.69L312.80-8.69L312.80-8.69Q312.80-12.63 315.68-14.95L315.68-14.95L315.68-14.95Q318.55-17.27 322.80-17.27L322.80-17.27L322.80-17.27Q327.04-17.27 329.66-15.66L329.66-15.66L329.66-15.66Q328.35-12.32 328.35-10.10L328.35-10.10L328.35-10.10Q328.35-3.43 334.01-3.43L334.01-3.43L334.01-3.43Q336.43-3.43 338.05-4.95L338.05-4.95L338.05-4.95Q339.66-6.46 339.66-9.09L339.66-9.09L339.66-9.09Q339.66-14.24 330.98-19.70L330.98-19.70L330.98-19.70Q323.91-24.34 322.29-26.16L322.29-26.16L322.29-26.16Q319.56-29.39 319.56-33.43L319.56-33.43L319.56-33.43Q319.56-37.47 321.48-41.31L321.48-41.31L321.48-41.31Q323.40-45.15 326.94-47.87L326.94-47.87L326.94-47.87Q334.31-53.53 347.14-53.53L347.14-53.53L347.14-53.53Q353.70-53.53 357.59-50.90L357.59-50.90L357.59-50.90Q361.48-48.28 361.48-43.83L361.48-43.83L361.48-43.83Q361.48-39.39 358.80-36.87L358.80-36.87L358.80-36.87Q356.13-34.34 351.28-34.34L351.28-34.34L351.28-34.34Q347.94-34.34 346.33-35.45ZM366.83-10.10L366.83-10.10L366.83-10.10Q366.83-12.83 368.25-19.70L368.25-19.70L373.60-46.97L367.64-46.97L368.04-50.00L368.04-50.00Q380.16-53.63 391.88-62.52L391.88-62.52L396.73-62.52L394.30-51.51L402.18-51.51L401.27-46.97L393.50-46.97L388.35-19.70L388.35-19.70Q387.03-13.43 387.03-11.31L387.03-11.31L387.03-11.31Q387.03-6.46 391.27-5.45L391.27-5.45L391.27-5.45Q390.26-2.02 386.63 0L386.63 0L386.63 0Q382.99 2.02 377.84 2.02L377.84 2.02L377.84 2.02Q372.69 2.02 369.76-1.21L369.76-1.21L369.76-1.21Q366.83-4.44 366.83-10.10ZM425.92-5.56L425.92-5.56L425.92-5.56Q422.79 2.02 412.79 2.02L412.79 2.02L412.79 2.02Q407.64 2.02 404.40-1.52L404.40-1.52L404.40-1.52Q401.68-4.65 401.68-7.78L401.68-7.78L401.68-7.78Q401.68-15.96 405.41-31.92L405.41-31.92L409.15-51.51L429.65-53.53L423.49-21.61L423.49-21.61Q421.78-14.14 421.78-11.51L421.78-11.51L421.78-11.51Q421.78-5.76 425.92-5.56ZM410.97-65.55L410.97-65.55L410.97-65.55Q410.97-69.49 414.25-71.61L414.25-71.61L414.25-71.61Q417.53-73.73 422.28-73.73L422.28-73.73L422.28-73.73Q427.03-73.73 429.91-71.61L429.91-71.61L429.91-71.61Q432.79-69.49 432.79-65.55L432.79-65.55L432.79-65.55Q432.79-61.61 429.60-59.59L429.60-59.59L429.60-59.59Q426.42-57.57 421.68-57.57L421.68-57.57L421.68-57.57Q416.93-57.57 413.95-59.59L413.95-59.59L413.95-59.59Q410.97-61.61 410.97-65.55ZM477.23 2.02L477.23 2.02L477.23 2.02Q465.00 2.02 465.00-7.47L465.00-7.47L465.00-7.47Q465.11-10.10 465.91-14.54L465.91-14.54L467.73-23.84L467.73-23.84Q470.46-36.97 470.46-39.90L470.46-39.90L470.46-39.90Q470.46-45.75 467.02-45.75L467.02-45.75L467.02-45.75Q461.27-45.75 458.24-30.70L458.24-30.70L452.28 0L431.98 2.02L442.48-51.61L459.05-53.53L457.43-43.63L457.43-43.63Q462.18-53.53 476.72-53.53L476.72-53.53L476.72-53.53Q483.79-53.53 486.77-50.55L486.77-50.55L486.77-50.55Q489.75-47.57 489.75-40.91L489.75-40.91L489.75-40.91Q489.75-34.64 486.52-20.00L486.52-20.00L486.52-20.00Q485.00-13.43 485.00-10.96L485.00-10.96L485.00-10.96Q485.00-8.48 486.37-7.07L486.37-7.07L486.37-7.07Q487.73-5.66 489.75-5.45L489.75-5.45L489.75-5.45Q488.74-2.02 485.25 0L485.25 0L485.25 0Q481.77 2.02 477.23 2.02ZM505-42.22L505-42.22L505-42.22Q508.43-47.07 513.64-50.30L513.64-50.30L513.64-50.30Q518.84-53.53 525.20-53.53L525.20-53.53L525.20-53.53Q531.56-53.53 534.59-51.51L534.59-51.51L554.39-53.53L547.52-14.75L547.52-14.75Q543.99 5.05 536.51 12.83L536.51 12.83L536.51 12.83Q529.34 20.20 515.40 20.20L515.40 20.20L515.40 20.20Q504.80 20.20 498.74 16.87L498.74 16.87L498.74 16.87Q492.68 13.53 492.68 7.98L492.68 7.98L492.68 7.98Q492.68 3.84 495.81 1.46L495.81 1.46L495.81 1.46Q498.94-0.91 503.79-0.91L503.79-0.91L503.79-0.91Q508.03-0.91 511.26 1.01L511.26 1.01L511.26 1.01Q513.18 2.02 514.09 3.43L514.09 3.43L514.09 3.43Q511.77 5.45 511.77 8.79L511.77 8.79L511.77 8.79Q511.77 13.13 515.81 13.13L515.81 13.13L515.81 13.13Q522.57 13.13 526.41-2.83L526.41-2.83L526.41-2.83Q527.52-7.17 528.43-11.51L528.43-11.51L528.43-11.51Q523.89-5.96 513.59-5.96L513.59-5.96L513.59-5.96Q506.41-5.96 502.27-9.39L502.27-9.39L502.27-9.39Q498.13-12.83 498.13-20.91L498.13-20.91L498.13-20.91Q498.13-25.96 499.85-31.66L499.85-31.66L499.85-31.66Q501.57-37.37 505-42.22ZM518.13-20.60L518.13-20.60L518.13-20.60Q518.13-13.74 521.67-13.74L521.67-13.74L521.67-13.74Q524.09-13.74 526.41-16.36L526.41-16.36L526.41-16.36Q528.23-18.48 528.94-21.61L528.94-21.61L534.09-47.57L534.09-47.57Q533.58-47.67 533.08-47.87L533.08-47.87L533.08-47.87Q532.07-48.28 530.75-48.28L530.75-48.28L530.75-48.28Q524.59-48.28 520.96-38.18L520.96-38.18L520.96-38.18Q518.13-30.30 518.13-20.60ZM618.52-46.66L618.52-46.66L618.52-46.66Q620.04-49.69 620.04-52.52L620.04-52.52L620.04-52.52Q620.04-55.35 619.74-56.91L619.74-56.91L619.74-56.91Q619.43-58.48 618.73-59.69L618.73-59.69L618.73-59.69Q617.21-62.32 614.18-62.32L614.18-62.32L614.18-62.32Q610.44-62.32 607.41-59.59L607.41-59.59L607.41-59.59Q604.18-56.76 604.18-52.32L604.18-52.32L604.18-52.32Q604.18-49.49 606.15-47.32L606.15-47.32L606.15-47.32Q608.12-45.15 611.15-43.13L611.15-43.13L611.15-43.13Q614.18-41.11 617.62-39.09L617.62-39.09L617.62-39.09Q621.05-37.07 624.08-34.64L624.08-34.64L624.08-34.64Q631.05-29.09 631.05-21.61L631.05-21.61L631.05-21.61Q631.05-16.56 628.37-12.27L628.37-12.27L628.37-12.27Q625.70-7.98 621.25-4.85L621.25-4.85L621.25-4.85Q611.56 2.02 598.73 2.02L598.73 2.02L598.73 2.02Q588.33 2.02 582.97-1.36L582.97-1.36L582.97-1.36Q577.62-4.75 577.62-9.90L577.62-9.90L577.62-9.90Q577.62-19.09 584.79-21.41L584.79-21.41L584.79-21.41Q586.81-22.12 589.89-22.12L589.89-22.12L589.89-22.12Q592.97-22.12 596.51-20.81L596.51-20.81L596.51-20.81Q594.89-16.67 594.89-12.93L594.89-12.93L594.89-12.93Q594.89-4.85 600.65-4.85L600.65-4.85L600.65-4.85Q604.38-4.85 607.46-7.58L607.46-7.58L607.46-7.58Q610.55-10.30 610.55-13.38L610.55-13.38L610.55-13.38Q610.55-16.46 608.58-18.69L608.58-18.69L608.58-18.69Q606.61-20.91 603.68-22.67L603.68-22.67L603.68-22.67Q600.75-24.44 597.36-26.16L597.36-26.16L597.36-26.16Q593.98-27.88 591.05-30.30L591.05-30.30L591.05-30.30Q584.18-35.86 584.18-44.74L584.18-44.74L584.18-44.74Q584.18-50.50 587.01-54.99L587.01-54.99L587.01-54.99Q589.84-59.49 594.38-62.52L594.38-62.52L594.38-62.52Q603.48-68.68 614.64-68.68L614.64-68.68L614.64-68.68Q625.80-68.68 631.20-65.35L631.20-65.35L631.20-65.35Q636.60-62.01 636.60-56.36L636.60-56.36L636.60-56.36Q636.60-51.41 632.76-48.28L632.76-48.28L632.76-48.28Q629.43-45.65 625.39-45.65L625.39-45.65L625.39-45.65Q621.35-45.65 618.52-46.66ZM662.96-5.56L662.96-5.56L662.96-5.56Q659.83 2.02 649.83 2.02L649.83 2.02L649.83 2.02Q644.68 2.02 641.45-1.52L641.45-1.52L641.45-1.52Q638.72-4.65 638.72-7.78L638.72-7.78L638.72-7.78Q638.72-15.96 642.46-31.92L642.46-31.92L646.20-51.51L666.70-53.53L660.54-21.61L660.54-21.61Q658.82-14.14 658.82-11.51L658.82-11.51L658.82-11.51Q658.82-5.76 662.96-5.56ZM648.02-65.55L648.02-65.55L648.02-65.55Q648.02-69.49 651.30-71.61L651.30-71.61L651.30-71.61Q654.58-73.73 659.33-73.73L659.33-73.73L659.33-73.73Q664.08-73.73 666.95-71.61L666.95-71.61L666.95-71.61Q669.83-69.49 669.83-65.55L669.83-65.55L669.83-65.55Q669.83-61.61 666.65-59.59L666.65-59.59L666.65-59.59Q663.47-57.57 658.72-57.57L658.72-57.57L658.72-57.57Q653.98-57.57 651.00-59.59L651.00-59.59L651.00-59.59Q648.02-61.61 648.02-65.55ZM673.17-10.10L673.17-10.10L673.17-10.10Q673.17-12.83 674.58-19.70L674.58-19.70L679.93-46.97L673.97-46.97L674.38-50.00L674.38-50.00Q686.50-53.63 698.21-62.52L698.21-62.52L703.06-62.52L700.64-51.51L708.52-51.51L707.61-46.97L699.83-46.97L694.68-19.70L694.68-19.70Q693.37-13.43 693.37-11.31L693.37-11.31L693.37-11.31Q693.37-6.46 697.61-5.45L697.61-5.45L697.61-5.45Q696.60-2.02 692.96 0L692.96 0L692.96 0Q689.33 2.02 684.17 2.02L684.17 2.02L684.17 2.02Q679.02 2.02 676.09-1.21L676.09-1.21L676.09-1.21Q673.17-4.44 673.17-10.10ZM748.51-17.07L748.51-17.07L748.51-17.07Q751.04-15.35 751.04-11.56L751.04-11.56L751.04-11.56Q751.04-7.78 749.12-5.35L749.12-5.35L749.12-5.35Q747.20-2.93 744.07-1.31L744.07-1.31L744.07-1.31Q737.60 2.02 730.63 2.02L730.63 2.02L730.63 2.02Q723.67 2.02 719.57 0.51L719.57 0.51L719.57 0.51Q715.48-1.01 712.76-3.84L712.76-3.84L712.76-3.84Q707.40-9.19 707.40-18.99L707.40-18.99L707.40-18.99Q707.40-34.24 715.69-43.53L715.69-43.53L715.69-43.53Q724.57-53.53 740.03-53.53L740.03-53.53L740.03-53.53Q749.62-53.53 754.37-49.49L754.37-49.49L754.37-49.49Q757.90-46.46 757.90-41.51L757.90-41.51L757.90-41.51Q757.90-23.74 727.20-23.74L727.20-23.74L727.20-23.74Q726.80-21.11 726.80-18.89L726.80-18.89L726.80-18.89Q726.80-14.24 728.87-12.47L728.87-12.47L728.87-12.47Q730.94-10.71 734.78-10.71L734.78-10.71L734.78-10.71Q738.61-10.71 742.70-12.47L742.70-12.47L742.70-12.47Q746.79-14.24 748.51-17.07ZM727.91-28.08L727.91-28.08L727.91-28.08Q735.08-28.08 739.22-32.52L739.22-32.52L739.22-32.52Q743.36-36.76 743.36-43.53L743.36-43.53L743.36-43.53Q743.36-45.85 742.50-47.12L742.50-47.12L742.50-47.12Q741.64-48.38 739.93-48.38L739.93-48.38L739.93-48.38Q738.21-48.38 736.74-47.72L736.74-47.72L736.74-47.72Q735.28-47.07 733.77-44.84L733.77-44.84L733.77-44.84Q730.03-39.79 727.91-28.08Z" fill="#262470"/></g></g><style>text {
  font-size: 164px;
  font-family: Arial Black;
  dominant-baseline: central;
  text-anchor: middle;
}</style></svg>