<svg xmlns="http://www.w3.org/2000/svg" width="176.4125px" height="122px" viewBox="161.79375 14 176.4125 122" style="background: none;" preserveAspectRatio="xMidYMid"><defs><filter id="editing-hover" x="-100%" y="-100%" width="300%" height="300%"><feFlood flood-color="#7db0dc" result="flood"/><feComposite operator="in" in2="SourceAlpha" in="flood" result="shadow"/><feOffset dx="1.5" dy="-0.6" in="SourceGraphic" result="offset-1"/><feOffset dx="-1.5" dy="0.6" in="shadow" result="offset-2"/><feMerge><feMergeNode in="offset-2"/><feMergeNode in="offset-1"/></feMerge></filter></defs><g filter="url(#editing-hover)"><g transform="translate(192.30501872301102, 97.39999961853027)"><path d="M7.68 0L0.64 0L8.32-42.24L22.08-42.24L32.06-13.18L37.38-42.24L44.48-42.18L36.67 0L22.02 0L12.80-27.97L7.68 0ZM72.83-9.86L72.83-9.86L72.83-9.86Q74.05-8.32 74.05-5.34L74.05-5.34L74.05-5.34Q74.05-2.37 71.78-0.54L71.78-0.54L71.78-0.54Q69.50 1.28 65.54 1.28L65.54 1.28L65.54 1.28Q63.23 1.28 59.65 0.77L59.65 0.77L59.65 0.77Q52.61-0.32 50.59-0.32L50.59-0.32L50.59-0.32Q48.58-0.32 47.74-0.22L47.74-0.22L47.74-0.22Q46.91-0.13 45.57 0L45.57 0L53.31-42.24L67.33-42.24L60.93-7.04L60.93-7.04Q61.76-6.91 62.53-6.91L62.53-6.91L64.13-6.91L64.13-6.91Q69.50-6.91 72.83-9.86ZM103.30-29.57L103.30-29.57L103.30-29.57Q104.26-31.49 104.26-33.28L104.26-33.28L104.26-33.28Q104.26-35.07 104.06-36.06L104.06-36.06L104.06-36.06Q103.87-37.06 103.42-37.82L103.42-37.82L103.42-37.82Q102.46-39.49 100.54-39.49L100.54-39.49L100.54-39.49Q98.18-39.49 96.26-37.76L96.26-37.76L96.26-37.76Q94.21-35.97 94.21-33.15L94.21-33.15L94.21-33.15Q94.21-31.36 95.46-29.98L95.46-29.98L95.46-29.98Q96.70-28.61 98.62-27.33L98.62-27.33L98.62-27.33Q100.54-26.05 102.72-24.77L102.72-24.77L102.72-24.77Q104.90-23.49 106.82-21.95L106.82-21.95L106.82-21.95Q111.23-18.43 111.23-13.70L111.23-13.70L111.23-13.70Q111.23-10.50 109.54-7.78L109.54-7.78L109.54-7.78Q107.84-5.06 105.02-3.07L105.02-3.07L105.02-3.07Q98.88 1.28 90.75 1.28L90.75 1.28L90.75 1.28Q84.16 1.28 80.77-0.86L80.77-0.86L80.77-0.86Q77.38-3.01 77.38-6.27L77.38-6.27L77.38-6.27Q77.38-12.10 81.92-13.57L81.92-13.57L81.92-13.57Q83.20-14.02 85.15-14.02L85.15-14.02L85.15-14.02Q87.10-14.02 89.34-13.18L89.34-13.18L89.34-13.18Q88.32-10.56 88.32-8.19L88.32-8.19L88.32-8.19Q88.32-3.07 91.97-3.07L91.97-3.07L91.97-3.07Q94.34-3.07 96.29-4.80L96.29-4.80L96.29-4.80Q98.24-6.53 98.24-8.48L98.24-8.48L98.24-8.48Q98.24-10.43 96.99-11.84L96.99-11.84L96.99-11.84Q95.74-13.25 93.89-14.37L93.89-14.37L93.89-14.37Q92.03-15.49 89.89-16.58L89.89-16.58L89.89-16.58Q87.74-17.66 85.89-19.20L85.89-19.20L85.89-19.20Q81.54-22.72 81.54-28.35L81.54-28.35L81.54-28.35Q81.54-32 83.33-34.85L83.33-34.85L83.33-34.85Q85.12-37.70 88-39.62L88-39.62L88-39.62Q93.76-43.52 100.83-43.52L100.83-43.52L100.83-43.52Q107.90-43.52 111.33-41.41L111.33-41.41L111.33-41.41Q114.75-39.30 114.75-35.71L114.75-35.71L114.75-35.71Q114.75-32.58 112.32-30.59L112.32-30.59L112.32-30.59Q110.21-28.93 107.65-28.93L107.65-28.93L107.65-28.93Q105.09-28.93 103.30-29.57Z" fill="#eeca77"/></g></g><style>text {
  font-size: 64px;
  font-family: Arial Black;
  dominant-baseline: central;
  text-anchor: middle;
}</style></svg>